<svg width="20" height="18" viewBox="0 0 20 18" fill="none" xmlns="http://www.w3.org/2000/svg">
<path d="M14.2 0.599976C14.9617 0.599858 15.6949 0.889455 16.2509 1.41002C16.8069 1.93059 17.1441 2.64315 17.194 3.40318L17.2 3.59998V6.65998C17.843 6.79148 18.4252 7.13014 18.8574 7.62408C19.2895 8.11802 19.5479 8.74 19.5928 9.39478L19.6 9.59998V16.8C19.6003 16.9499 19.5444 17.0945 19.4434 17.2053C19.3424 17.3161 19.2036 17.3851 19.0542 17.3986C18.9049 17.4122 18.7559 17.3693 18.6366 17.2785C18.5173 17.1877 18.4363 17.0555 18.4096 16.908L18.4 16.8V13.8H1.60002V16.8C1.6003 16.9499 1.54443 17.0945 1.44341 17.2053C1.3424 17.3161 1.20356 17.3851 1.05424 17.3986C0.904916 17.4122 0.755933 17.3693 0.636626 17.2785C0.51732 17.1877 0.436337 17.0555 0.409624 16.908L0.400024 16.8V9.59998C0.399883 8.90838 0.638694 8.23798 1.07604 7.70223C1.51339 7.16648 2.12241 6.79829 2.80002 6.65998V3.59998C2.79991 2.83831 3.0895 2.10512 3.61007 1.54912C4.13064 0.99312 4.8432 0.655941 5.60322 0.605976L5.80002 0.599976H14.2ZM16.6 7.79998H3.40002C2.95275 7.79997 2.5215 7.96648 2.19029 8.26707C1.85909 8.56767 1.65166 8.9808 1.60842 9.42598L1.60002 9.59998V12.6H18.4V9.59998C18.4 9.1527 18.2335 8.72145 17.9329 8.39025C17.6323 8.05904 17.2192 7.85161 16.774 7.80838L16.6 7.79998ZM14.2 1.79998H5.80002C5.35257 1.8 4.92116 1.96668 4.58992 2.26752C4.25869 2.56836 4.05138 2.98178 4.00842 3.42718L4.00002 3.59998V6.59998H5.20002V5.99998C5.20002 5.84085 5.26324 5.68823 5.37576 5.57571C5.48828 5.46319 5.64089 5.39998 5.80002 5.39998H8.80002C8.95916 5.39998 9.11177 5.46319 9.22429 5.57571C9.33681 5.68823 9.40002 5.84085 9.40002 5.99998V6.59998H10.6V5.99998C10.6 5.84085 10.6632 5.68823 10.7758 5.57571C10.8883 5.46319 11.0409 5.39998 11.2 5.39998H14.2C14.3592 5.39998 14.5118 5.46319 14.6243 5.57571C14.7368 5.68823 14.8 5.84085 14.8 5.99998V6.59998H16V3.59998C16 3.1527 15.8335 2.72145 15.5329 2.39025C15.2323 2.05904 14.8192 1.85161 14.374 1.80838L14.2 1.79998Z" fill="#FFFBFB" fill-opacity="0.65"/>
</svg>
