<svg width="23" height="24" viewBox="0 0 23 24" fill="none" xmlns="http://www.w3.org/2000/svg">
<path d="M21.25 13.125H3.25V4.6875C3.24913 4.36975 3.31129 4.05498 3.4329 3.76142C3.5545 3.46786 3.73312 3.20133 3.95842 2.97727L3.97717 2.95852C4.33026 2.60594 4.7836 2.37098 5.27524 2.28572C5.76688 2.20046 6.27286 2.26907 6.72405 2.48217C6.29794 3.19064 6.12083 4.02119 6.22086 4.84185C6.32089 5.66251 6.69233 6.4262 7.27614 7.01156L7.78947 7.52489L6.84461 8.4698L7.9052 9.53039L8.85006 8.58553L14.0855 3.3502L15.0303 2.40534L13.9697 1.3447L13.0248 2.28956L12.5115 1.77623C11.8969 1.16336 11.0867 0.785558 10.2222 0.708671C9.35764 0.631784 8.49353 0.860685 7.78042 1.35548C7.02846 0.8806 6.13734 0.675589 5.25346 0.774129C4.36958 0.87267 3.54549 1.2689 2.91658 1.89773L2.89783 1.91648C2.53279 2.27953 2.24338 2.71137 2.04635 3.18702C1.84933 3.66266 1.7486 4.17266 1.75 4.6875V13.125H0.25V14.625H1.75V16.0641C1.74997 16.185 1.76947 16.3051 1.80775 16.4198L3.20312 20.6057C3.27759 20.8298 3.42078 21.0248 3.61235 21.1629C3.80392 21.301 4.03413 21.3752 4.27028 21.375H4.87497L4.32812 23.25H5.89061L6.4375 21.375H16.1922L16.7547 23.25H18.3203L17.7578 21.375H18.7295C18.9657 21.3752 19.196 21.301 19.3876 21.1629C19.5792 21.0248 19.7224 20.8299 19.7969 20.6057L21.1922 16.4198C21.2304 16.3051 21.25 16.185 21.25 16.0641V14.625H22.75V13.125H21.25ZM8.33687 2.83687C8.75012 2.42453 9.31007 2.19295 9.89385 2.19295C10.4776 2.19295 11.0376 2.42453 11.4508 2.83687L11.9641 3.3502L8.8502 6.46406L8.33687 5.95083C7.92455 5.53757 7.69298 4.97763 7.69298 4.39385C7.69298 3.81007 7.92455 3.25013 8.33687 2.83687ZM19.75 16.0031L18.4594 19.875H4.54056L3.25 16.0031V14.625H19.75V16.0031Z" fill="#FFFBFB" fill-opacity="0.65"/>
</svg>
