<svg width="40" height="40" viewBox="0 0 40 40" fill="none" xmlns="http://www.w3.org/2000/svg">
<g clip-path="url(#clip0_88_775)">
<path d="M17.2015 5.24262C17.0881 5.12892 16.9533 5.0387 16.805 4.97715C16.6566 4.9156 16.4976 4.88391 16.337 4.88391C16.1764 4.88391 16.0174 4.9156 15.869 4.97715C15.7207 5.0387 15.586 5.12892 15.4725 5.24262L0.820643 19.8945C0.707331 20.0081 0.617519 20.1429 0.556343 20.2913C0.495167 20.4396 0.463827 20.5985 0.464113 20.759V37.8529C0.464113 38.1767 0.592753 38.4873 0.821734 38.7162C1.05071 38.9452 1.36128 39.0739 1.68511 39.0739H12.674C12.9979 39.0739 13.3084 38.9452 13.5374 38.7162C13.7664 38.4873 13.895 38.1767 13.895 37.8529V28.0849H18.779V37.8529C18.779 38.1767 18.9076 38.4873 19.1366 38.7162C19.3656 38.9452 19.6762 39.0739 20 39.0739H30.9889C31.3127 39.0739 31.6233 38.9452 31.8523 38.7162C32.0813 38.4873 32.2099 38.1767 32.2099 37.8529V20.759C32.2102 20.5985 32.1789 20.4396 32.1177 20.2913C32.0565 20.1429 31.9667 20.0081 31.8534 19.8945L28.5469 16.5905V8.54907C28.5469 8.22524 28.4183 7.91468 28.1893 7.6857C27.9603 7.45672 27.6498 7.32808 27.3259 7.32808H24.884C24.5601 7.32808 24.2496 7.45672 24.0206 7.6857C23.7916 7.91468 23.663 8.22524 23.663 8.54907V11.7066L17.2015 5.24262ZM2.9061 36.6319V21.2645L16.337 7.83357L29.7679 21.2645V36.6319H21.221V26.8639C21.221 26.5401 21.0923 26.2296 20.8634 26.0006C20.6344 25.7716 20.3238 25.643 20 25.643H12.674C12.3502 25.643 12.0396 25.7716 11.8107 26.0006C11.5817 26.2296 11.453 26.5401 11.453 26.8639V36.6319H2.9061Z" fill="#E6E6E6" fill-opacity="0.6"/>
<path d="M24.5273 5.24262C24.4139 5.12892 24.2792 5.0387 24.1308 4.97715C23.9825 4.9156 23.8235 4.88391 23.6629 4.88391C23.5023 4.88391 23.3432 4.9156 23.1949 4.97715C23.0466 5.0387 22.9118 5.12892 22.7984 5.24262L8.14651 19.8945C8.0332 20.0081 7.94339 20.1429 7.88221 20.2913C7.82103 20.4396 7.78969 20.5985 7.78998 20.759V37.8529C7.78998 38.1767 7.91862 38.4873 8.1476 38.7162C8.37658 38.9452 8.68714 39.0739 9.01097 39.0739H19.9999C20.3237 39.0739 20.6343 38.9452 20.8633 38.7162C21.0923 38.4873 21.2209 38.1767 21.2209 37.8529V28.0849H26.1049V37.8529C26.1049 38.1767 26.2335 38.4873 26.4625 38.7162C26.6915 38.9452 27.002 39.0739 27.3259 39.0739H38.3148C38.6386 39.0739 38.9492 38.9452 39.1782 38.7162C39.4071 38.4873 39.5358 38.1767 39.5358 37.8529V20.759C39.5361 20.5985 39.5047 20.4396 39.4435 20.2913C39.3824 20.1429 39.2926 20.0081 39.1792 19.8945L35.8728 16.5905V8.54907C35.8728 8.22524 35.7442 7.91468 35.5152 7.6857C35.2862 7.45672 34.9756 7.32808 34.6518 7.32808H32.2098C31.886 7.32808 31.5754 7.45672 31.3464 7.6857C31.1175 7.91468 30.9888 8.22524 30.9888 8.54907V11.7066L24.5273 5.24262ZM10.232 36.6319V21.2645L23.6629 7.83357L37.0938 21.2645V36.6319H28.5468V26.8639C28.5468 26.5401 28.4182 26.2296 28.1892 26.0006C27.9602 25.7716 27.6497 25.643 27.3259 25.643H19.9999C19.6761 25.643 19.3655 25.7716 19.1365 26.0006C18.9075 26.2296 18.7789 26.5401 18.7789 26.8639V36.6319H10.232Z" fill="#FF9505"/>
</g>
<defs>
<clipPath id="clip0_88_775">
<rect width="39.0717" height="39.0717" fill="white" transform="translate(0.464111)"/>
</clipPath>
</defs>
</svg>
