<svg width="14" height="12" viewBox="0 0 14 12" fill="none" xmlns="http://www.w3.org/2000/svg">
<path d="M9.79998 0.399902C10.3078 0.399824 10.7965 0.592888 11.1672 0.939934C11.5379 1.28698 11.7627 1.76202 11.796 2.2687L11.8 2.3999V4.4399C12.2286 4.52757 12.6168 4.75334 12.9049 5.08264C13.193 5.41193 13.3652 5.82659 13.3952 6.2631L13.4 6.3999V11.1999C13.4002 11.2999 13.3629 11.3963 13.2956 11.4701C13.2282 11.544 13.1357 11.59 13.0361 11.599C12.9366 11.608 12.8372 11.5795 12.7577 11.5189C12.6782 11.4584 12.6242 11.3703 12.6064 11.2719L12.6 11.1999V9.1999H1.39998V11.1999C1.40016 11.2999 1.36291 11.3963 1.29557 11.4701C1.22823 11.544 1.13567 11.59 1.03612 11.599C0.93657 11.608 0.837248 11.5795 0.75771 11.5189C0.678173 11.4584 0.624184 11.3703 0.606376 11.2719L0.599976 11.1999V6.3999C0.599882 5.93884 0.759089 5.49191 1.05065 5.13474C1.34222 4.77758 1.74823 4.53211 2.19998 4.4399V2.3999C2.1999 1.89213 2.39296 1.40333 2.74001 1.03267C3.08705 0.661999 3.56209 0.437212 4.06878 0.403902L4.19998 0.399902H9.79998ZM11.4 5.1999H2.59998C2.30179 5.1999 2.01429 5.31091 1.79349 5.5113C1.57269 5.7117 1.4344 5.98712 1.40558 6.2839L1.39998 6.3999V8.3999H12.6V6.3999C12.6 6.10172 12.489 5.81422 12.2886 5.59342C12.0882 5.37261 11.8128 5.23433 11.516 5.2055L11.4 5.1999ZM9.79998 1.1999H4.19998C3.90167 1.19992 3.61406 1.31104 3.39324 1.5116C3.17242 1.71216 3.03421 1.98777 3.00558 2.2847L2.99998 2.3999V4.3999H3.79998V3.9999C3.79998 3.89382 3.84212 3.79207 3.91713 3.71706C3.99215 3.64205 4.09389 3.5999 4.19998 3.5999H6.19998C6.30606 3.5999 6.4078 3.64205 6.48282 3.71706C6.55783 3.79207 6.59998 3.89382 6.59998 3.9999V4.3999H7.39998V3.9999C7.39998 3.89382 7.44212 3.79207 7.51713 3.71706C7.59215 3.64205 7.69389 3.5999 7.79998 3.5999H9.79998C9.90606 3.5999 10.0078 3.64205 10.0828 3.71706C10.1578 3.79207 10.2 3.89382 10.2 3.9999V4.3999H11V2.3999C11 2.10172 10.889 1.81422 10.6886 1.59342C10.4882 1.37261 10.2128 1.23433 9.91598 1.2055L9.79998 1.1999Z" fill="#FFFBFB" fill-opacity="0.65"/>
</svg>
